Coordinates
version=1
nRows=28
nColumns=38
inDegrees=no

Units are S.I. units (second, meters, Newtons, ...)
If the header above contains a line with 'inDegrees', this indicates whether rotational values are in degrees (yes) or radians (no).

endheader
time	pelvis_tilt	pelvis_list	pelvis_rotation	pelvis_tx	pelvis_ty	pelvis_tz	hip_flexion_r	hip_adduction_r	hip_rotation_r	knee_angle_r	ankle_angle_r	subtalar_angle_r	mtp_angle_r	hip_flexion_l	hip_adduction_l	hip_rotation_l	knee_angle_l	ankle_angle_l	subtalar_angle_l	mtp_angle_l	lumbar_extension	lumbar_bending	lumbar_rotation	arm_flex_r	arm_add_r	arm_rot_r	elbow_flex_r	pro_sup_r	wrist_flex_r	wrist_dev_r	arm_flex_l	arm_add_l	arm_rot_l	elbow_flex_l	pro_sup_l	wrist_flex_l	wrist_dev_l
2.52	0.0169255	-0.085502	-0.00653288	0.897298	0.934823	-0.339496	0.0564256	0.109082	-0.173291	-0.756277	0.595035	0.1	-1.54716e-05	0.558197	-0.0843964	0.0117901	-1.96229	0.037605	0.1	-4.62513e-05	-0.285025	0.0595575	0.0997724	-0.238175	-0.514135	-0.267681	1.70779	1.3141	0.0267923	-0.0465805	-0.458787	-0.35498	-0.065138	1.37125	1.88819	0.1	-0.0268818
2.53	0.00811275	-0.0592424	0.00346955	0.899564	0.937849	-0.340616	-0.0203267	0.0774123	-0.193525	-0.695752	0.56078	0.1	-1.54716e-05	0.626419	-0.0456721	0.0126056	-1.90357	0.0680803	0.1	-4.62513e-05	-0.26592	0.0312561	0.106105	-0.23245	-0.521023	-0.282367	1.73949	1.31346	0.0267923	-0.0465805	-0.519134	-0.358184	-0.0950195	1.40509	1.86682	0.1	-0.0268818
2.54	-0.00158471	-0.0311214	0.0107169	0.902555	0.941444	-0.341836	-0.0950493	0.0427249	-0.218901	-0.631789	0.501761	0.1	-1.54716e-05	0.684578	-0.00814718	0.00488385	-1.82648	0.09652	0.1	-4.62513e-05	-0.244973	0.00039011	0.113371	-0.232052	-0.525879	-0.296994	1.77313	1.31431	0.0267923	-0.0465805	-0.580389	-0.360591	-0.124665	1.44497	1.84299	0.1	-0.0268818
2.55	-0.0119025	-0.00304271	0.014591	0.906068	0.945461	-0.343087	-0.165161	0.00720432	-0.247017	-0.569152	0.420493	0.1	-1.54716e-05	0.731548	0.0256599	-0.0102692	-1.73137	0.123839	0.1	-4.62513e-05	-0.222977	-0.0310605	0.122273	-0.235462	-0.529127	-0.310104	1.80716	1.31693	0.0267923	-0.0465805	-0.64051	-0.361422	-0.153459	1.48733	1.81891	0.1	-0.0268818
2.56	-0.0224875	0.0231921	0.0149452	0.909834	0.949721	-0.344267	-0.228323	-0.0270703	-0.274767	-0.512686	0.321355	0.1	-1.54716e-05	0.766528	0.0539849	-0.0308494	-1.61864	0.15099	0.1	-4.62513e-05	-0.200844	-0.0611056	0.133082	-0.241182	-0.530991	-0.320702	1.84016	1.3218	0.0267923	-0.0465805	-0.697378	-0.360147	-0.180742	1.52904	1.79626	0.1	-0.0268818
2.57	-0.0329461	0.0460111	0.0120484	0.913573	0.954022	-0.34527	-0.282605	-0.0582133	-0.298629	-0.466986	0.210331	0.1	-1.54716e-05	0.789059	0.0758611	-0.0543823	-1.48898	0.178762	0.1	-4.62513e-05	-0.179514	-0.0879147	0.145676	-0.24792	-0.531505	-0.328315	1.87093	1.32953	0.0267923	-0.0465805	-0.748953	-0.356543	-0.205846	1.56763	1.7761	0.1	-0.0268818
2.58	-0.0428445	0.0641797	0.00648428	0.917044	0.958161	-0.34601	-0.326667	-0.084601	-0.315093	-0.436044	0.0946512	0.1	-1.54716e-05	0.799027	0.0910506	-0.0783764	-1.34373	0.207595	0.1	-4.62513e-05	-0.159925	-0.109979	0.159588	-0.2547	-0.530581	-0.33291	1.89849	1.34065	0.0267923	-0.0465805	-0.793429	-0.350688	-0.228146	1.60138	1.75889	0.1	-0.0268818
2.59	-0.0516697	0.076893	-0.000968044	0.920082	0.961952	-0.346435	-0.359913	-0.104955	-0.321197	-0.422975	-0.0177776	0.1	-1.54716e-05	0.796692	0.0999115	-0.100718	-1.18536	0.237395	0.1	-4.62513e-05	-0.143031	-0.126256	0.174083	-0.260883	-0.528107	-0.334715	1.92216	1.35536	0.0267923	-0.0465805	-0.829373	-0.342907	-0.24712	1.62937	1.74466	0.1	-0.0268818
2.6	-0.0587947	0.0838496	-0.00944839	0.922608	0.965267	-0.34653	-0.382537	-0.118461	-0.315049	-0.429818	-0.119303	0.1	-1.54716e-05	0.782757	0.103243	-0.11996	-1.0179	0.267395	0.1	-4.62513e-05	-0.129819	-0.136284	0.188236	-0.266152	-0.524044	-0.334054	1.94144	1.37331	0.0267923	-0.0465805	-0.855825	-0.333705	-0.262399	1.65141	1.73313	0.1	-0.0268818
2.61	-0.0635013	0.0853067	-0.0181143	0.924581	0.967987	-0.346315	-0.395436	-0.124936	-0.296361	-0.457489	-0.203712	0.1	-1.54716e-05	0.758459	0.102153	-0.135442	-0.847129	0.296063	0.1	-4.62513e-05	-0.121285	-0.140256	0.201022	-0.270447	-0.518473	-0.331218	1.95604	1.39354	0.0267923	-0.0465805	-0.872346	-0.323703	-0.273788	1.66797	1.72389	0.1	-0.0268818
2.62	-0.0650704	0.0820992	-0.0262085	0.926067	0.970088	-0.345875	-0.399974	-0.12497	-0.266718	-0.505785	-0.267429	0.1	-1.54716e-05	0.725654	0.097953	-0.147225	-0.680486	0.321114	0.1	-4.62513e-05	-0.118314	-0.139033	0.211405	-0.273896	-0.511587	-0.326417	1.96581	1.41453	0.0267923	-0.0465805	-0.879001	-0.313601	-0.281267	1.67996	1.71651	0.1	-0.0268818
2.63	-0.0629515	0.0755687	-0.0330895	0.927124	0.971548	-0.34534	-0.397659	-0.119949	-0.229394	-0.573451	-0.310203	0.1	-1.54716e-05	0.686835	0.0920925	-0.15586	-0.526527	0.339731	0.1	-4.62513e-05	-0.121492	-0.134055	0.218417	-0.276744	-0.503636	-0.3198	1.97068	1.43443	0.0267923	-0.0465805	-0.876293	-0.304145	-0.284964	1.68855	1.71062	0.1	-0.0268818
2.64	-0.0569551	0.0674058	-0.0382274	0.927783	0.972353	-0.344866	-0.389793	-0.111951	-0.188893	-0.658339	-0.334886	0.1	-1.54716e-05	0.645038	0.086089	-0.162037	-0.394024	0.349043	0.1	-4.62513e-05	-0.130906	-0.127156	0.221206	-0.279305	-0.49485	-0.311514	1.97062	1.45146	0.0267923	-0.0465805	-0.865036	-0.296099	-0.285113	1.69497	1.70589	0.1	-0.0268818
2.65	-0.0474058	0.0594192	-0.0411882	0.928027	0.972466	-0.344597	-0.377204	-0.103437	-0.15012	-0.757586	-0.346338	0.1	-1.54716e-05	0.603619	0.0814126	-0.166297	-0.290902	0.346888	0.1	-4.62513e-05	-0.146014	-0.120271	0.219083	-0.281924	-0.485382	-0.301768	1.9656	1.4642	0.0267923	-0.0465805	-0.846204	-0.290197	-0.281996	1.70021	1.70209	0.1	-0.0268818
2.66	-0.0351553	0.0532512	-0.0416178	0.927795	0.971818	-0.344633	-0.360119	-0.0968096	-0.117356	-0.867815	-0.349857	0.1	-1.54716e-05	0.565938	0.0792859	-0.169055	-0.223293	0.332768	0.1	-4.62513e-05	-0.165642	-0.115119	0.211554	-0.284946	-0.475275	-0.290877	1.95557	1.47191	0.0267923	-0.0465805	-0.820762	-0.28708	-0.275885	1.70491	1.69904	0.1	-0.0268818
2.67	-0.0214676	0.0501203	-0.0392674	0.927046	0.970323	-0.345014	-0.338172	-0.0940013	-0.0935014	-0.985389	-0.3497	0.1	-1.54716e-05	0.534934	0.0805569	-0.170476	-0.194709	0.308493	0.1	-4.62513e-05	-0.188128	-0.112953	0.198358	-0.288683	-0.464477	-0.279247	1.94045	1.47465	0.0267923	-0.0465805	-0.789523	-0.287222	-0.267013	1.70922	1.6966	0.1	-0.0268818
2.68	-0.007821	0.0506841	-0.0340407	0.925789	0.967881	-0.345725	-0.310553	-0.0961693	-0.0796384	-1.10666	-0.348183	0.1	-1.54716e-05	0.512581	0.0856338	-0.170423	-0.205342	0.278234	0.1	-4.62513e-05	-0.211579	-0.114401	0.179511	-0.293372	-0.452886	-0.267313	1.92017	1.47317	0.0267923	-0.0465805	-0.753052	-0.290862	-0.255557	1.71277	1.69471	0.1	-0.0268818
2.69	0.00434989	0.0550103	-0.0260582	0.924055	0.964456	-0.346717	-0.276219	-0.103605	-0.0750709	-1.2282	-0.345574	0.1	-1.54716e-05	0.499392	0.0945007	-0.168477	-0.251663	0.247982	0.1	-4.62513e-05	-0.234176	-0.11947	0.155346	-0.29915	-0.440402	-0.255444	1.89469	1.4687	0.0267923	-0.0465805	-0.711636	-0.297963	-0.241661	1.71474	1.69335	0.1	-0.0268818
2.7	0.0139086	0.0626465	-0.0157129	0.921916	0.960111	-0.347906	-0.234163	-0.115803	-0.0776965	-1.34689	-0.340659	0.1	-1.54716e-05	0.49426	0.106743	-0.164071	-0.326813	0.224651	0.1	-4.62513e-05	-0.254443	-0.127637	0.126528	-0.306047	-0.42698	-0.24386	1.86411	1.46261	0.0267923	-0.0465805	-0.665339	-0.308197	-0.225477	1.7141	1.69263	0.1	-0.0268818
2.71	0.0202167	0.0727467	-0.00369729	0.919473	0.955109	-0.349173	-0.183676	-0.131661	-0.0846134	-1.46	-0.331572	0.1	-1.54716e-05	0.494703	0.121545	-0.156851	-0.421786	0.214945	0.1	-4.62513e-05	-0.271451	-0.138009	0.0940463	-0.31402	-0.412674	-0.232593	1.82875	1.45616	0.0267923	-0.0465805	-0.614132	-0.32097	-0.207221	1.70981	1.6927	0.1	-0.0268818
2.72	0.0232728	0.0842056	0.00901937	0.916835	0.949895	-0.350364	-0.124602	-0.14968	-0.0927219	-1.5651	-0.316634	0.1	-1.54716e-05	0.497177	0.137744	-0.146895	-0.52657	0.223822	0.1	-4.62513e-05	-0.284901	-0.149497	0.0591559	-0.323017	-0.397655	-0.221512	1.7893	1.45013	0.0267923	-0.0465805	-0.558077	-0.335485	-0.187245	1.70119	1.6938	0.1	-0.0268818
2.73	0.0236525	0.0958368	0.0212695	0.914056	0.944908	-0.351319	-0.0575177	-0.168164	-0.0992743	-1.65999	-0.294864	0.1	-1.54716e-05	0.497456	0.153926	-0.134775	-0.631167	0.253126	0.1	-4.62513e-05	-0.295139	-0.160953	0.0232852	-0.333045	-0.382208	-0.210418	1.74688	1.44469	0.0267923	-0.0465805	-0.497521	-0.350821	-0.166108	1.68823	1.69615	0.1	-0.0268818
2.74	0.0223891	0.106476	0.0318443	0.911156	0.940431	-0.351959	0.0162425	-0.185376	-0.102299	-1.74268	-0.266129	0.1	-1.54716e-05	0.49116	0.16859	-0.121333	-0.726495	0.301004	0.1	-4.62513e-05	-0.302972	-0.171272	-0.0121081	-0.344246	-0.366704	-0.199186	1.70309	1.43936	0.0267923	-0.0465805	-0.433261	-0.366023	-0.144619	1.67181	1.6999	0.1	-0.0268818
2.75	0.0206912	0.115058	0.0396949	0.908178	0.936658	-0.352312	0.0947221	-0.199653	-0.100845	-1.81134	-0.231112	0.1	-1.54716e-05	0.474419	0.1803	-0.107502	-0.805188	0.362401	0.1	-4.62513e-05	-0.309386	-0.17943	-0.0457044	-0.35693	-0.351571	-0.187894	1.65997	1.4332	0.0267923	-0.0465805	-0.366644	-0.380162	-0.12384	1.65377	1.70506	0.1	-0.0268818
2.76	0.0196041	0.120668	0.0441299	0.905233	0.933801	-0.352424	0.175623	-0.209519	-0.0950573	-1.86439	-0.191169	0.1	-1.54716e-05	0.444523	0.187806	-0.0942352	-0.862167	0.430357	0.1	-4.62513e-05	-0.315162	-0.184487	-0.0764871	-0.371583	-0.337249	-0.176897	1.61974	1.42513	0.0267923	-0.0465805	-0.299549	-0.392386	-0.105019	1.63666	1.7115	0.1	-0.0268818
2.77	0.0197125	0.122538	0.0449534	0.902492	0.932067	-0.35228	0.256631	-0.213819	-0.0860664	-1.90053	-0.148121	0.1	-1.54716e-05	0.400362	0.190166	-0.0824923	-0.894829	0.497365	0.1	-4.62513e-05	-0.320574	-0.185633	-0.103858	-0.388811	-0.324152	-0.166799	1.58461	1.41438	0.0267923	-0.0465805	-0.234251	-0.401959	-0.0894318	1.62341	1.71895	0.1	-0.0268818
2.78	0.0209911	0.120104	0.0424701	0.900154	0.931571	-0.351903	0.335671	-0.211852	-0.075725	-1.9188	-0.103979	0.1	-1.54716e-05	0.342511	0.186788	-0.0733357	-0.902873	0.556434	0.1	-4.62513e-05	-0.325262	-0.182227	-0.127668	-0.409231	-0.312636	-0.158326	1.55642	1.40088	0.0267923	-0.0465805	-0.17317	-0.408322	-0.0781775	1.61679	1.72705	0.1	-0.0268818
2.79	0.0228697	0.11309	0.0373609	0.898418	0.932279	-0.351395	0.411029	-0.203414	-0.0661891	-1.91859	-0.0607269	0.1	-1.54716e-05	0.272967	0.177445	-0.0679625	-0.887866	0.601633	0.1	-4.62513e-05	-0.328348	-0.17386	-0.148142	-0.433345	-0.302969	-0.152159	1.53646	1.38541	0.0267923	-0.0465805	-0.118554	-0.411166	-0.0719415	1.61897	1.73534	0.1	-0.0268818
